<svg width="178" height="40" viewBox="0 0 178 40" fill="none" xmlns="http://www.w3.org/2000/svg">
<path d="M71.7372 16.7656C71.1705 12.0625 67.6108 9.35795 62.8977 9.35795C57.5185 9.35795 53.4119 13.1562 53.4119 19.8182C53.4119 26.4602 57.4489 30.2784 62.8977 30.2784C68.1179 30.2784 71.2699 26.8082 71.7372 23.0597L67.3821 23.0398C66.9744 25.2173 65.2642 26.4702 62.9673 26.4702C59.875 26.4702 57.777 24.1733 57.777 19.8182C57.777 15.5824 59.8452 13.1662 62.9972 13.1662C65.3537 13.1662 67.054 14.5284 67.3821 16.7656H71.7372ZM73.625 30H77.8608V21.3594C77.8608 19.4801 79.233 18.1875 81.1023 18.1875C81.6889 18.1875 82.4943 18.2869 82.8921 18.4162V14.6577C82.5142 14.5682 81.9872 14.5085 81.5597 14.5085C79.8495 14.5085 78.4475 15.5028 77.8907 17.392H77.7316V14.7273H73.625V30ZM87.042 35.7273C90.1939 35.7273 91.8644 34.1165 92.7295 31.6506L98.6655 14.7472L94.1812 14.7273L90.9894 25.9432H90.8303L87.6684 14.7273H83.2138L88.6925 30.4375L88.4439 31.0838C87.8871 32.5156 86.8232 32.5852 85.3317 32.1278L84.3772 35.2898C84.9837 35.5483 85.9681 35.7273 87.042 35.7273ZM99.7132 35.7273H103.949V27.554H104.078C104.665 28.8267 105.948 30.2486 108.413 30.2486C111.894 30.2486 114.608 27.4943 114.608 22.3835C114.608 17.1335 111.774 14.5284 108.423 14.5284C105.868 14.5284 104.645 16.0497 104.078 17.2926H103.889V14.7273H99.7132V35.7273ZM103.859 22.3636C103.859 19.6392 105.013 17.8991 107.071 17.8991C109.169 17.8991 110.283 19.7188 110.283 22.3636C110.283 25.0284 109.149 26.8778 107.071 26.8778C105.033 26.8778 103.859 25.0881 103.859 22.3636ZM124.435 14.7273H121.562V11.0682H117.326V14.7273H115.238V17.9091H117.326V25.8636C117.306 28.8565 119.345 30.3381 122.417 30.2088C123.511 30.169 124.286 29.9503 124.714 29.8111L124.048 26.6591C123.839 26.6989 123.391 26.7983 122.994 26.7983C122.149 26.7983 121.562 26.4801 121.562 25.3068V17.9091H124.435V14.7273ZM132.811 30.2983C137.445 30.2983 140.328 27.1264 140.328 22.4233C140.328 17.6903 137.445 14.5284 132.811 14.5284C128.178 14.5284 125.294 17.6903 125.294 22.4233C125.294 27.1264 128.178 30.2983 132.811 30.2983ZM132.831 27.017C130.693 27.017 129.6 25.0582 129.6 22.3935C129.6 19.7287 130.693 17.7599 132.831 17.7599C134.929 17.7599 136.023 19.7287 136.023 22.3935C136.023 25.0582 134.929 27.017 132.831 27.017ZM160.755 19.8182C160.755 13.1562 156.619 9.35795 151.22 9.35795C145.791 9.35795 141.684 13.1562 141.684 19.8182C141.684 26.4503 145.791 30.2784 151.22 30.2784C152.492 30.2784 153.695 30.0696 154.789 29.652L156.43 31.6705H160.447L157.534 28.0114C159.522 26.2315 160.755 23.4474 160.755 19.8182ZM149.728 22.9205L152.333 26.3608C151.985 26.4304 151.607 26.4702 151.22 26.4702C148.088 26.4702 146.049 24.1335 146.049 19.8182C146.049 15.5028 148.088 13.1662 151.22 13.1662C154.342 13.1662 156.39 15.5028 156.39 19.8182C156.39 22.0355 155.843 23.7358 154.899 24.8594L153.387 22.9205H149.728ZM169.645 30.2983C173.712 30.2983 176.268 27.9119 176.466 24.402H172.469C172.221 26.0327 171.147 26.9474 169.695 26.9474C167.716 26.9474 166.434 25.2869 166.434 22.3636C166.434 19.4801 167.726 17.8295 169.695 17.8295C171.246 17.8295 172.241 18.8537 172.469 20.375H176.466C176.287 16.8452 173.613 14.5284 169.626 14.5284C164.992 14.5284 162.128 17.7401 162.128 22.4233C162.128 27.0668 164.942 30.2983 169.645 30.2983Z" fill="white"/>
<path fill-rule="evenodd" clip-rule="evenodd" d="M19 39C29.4934 39 38 30.4934 38 20C38 9.50659 29.4934 1 19 1C8.50659 1 0 9.50659 0 20C0 30.4934 8.50659 39 19 39ZM29.4687 21.2848C28.9762 19.1893 27.0062 17.7101 24.5437 17.7101C21.7119 17.7101 19.4956 19.8056 19.4956 22.3942C19.4956 23.6268 19.9881 24.6129 20.7269 25.4758C15.3094 25.3525 11.0001 21.0383 11.0001 15.7379C11.0001 10.3143 15.5557 6 21.0962 6C24.5437 6 27.6218 7.47921 30.5768 10.8073C34.1903 15.3123 34.4474 20.7376 33.5894 23.8598C32.7313 26.982 29.468 31.3367 26.8126 32C27.0855 31.3632 27.3919 30.72 27.7015 30.0699C29.0338 27.2726 30.4256 24.3505 29.4687 21.2848Z" fill="white"/>
</svg>
