<svg width="180" height="39" viewBox="0 0 180 39" fill="none" xmlns="http://www.w3.org/2000/svg">
<path d="M73.1737 16.0811C72.5956 11.2838 68.9646 8.52515 64.1572 8.52515C58.6702 8.52515 54.4814 12.3995 54.4814 19.1948C54.4814 25.9699 58.5992 29.8645 64.1572 29.8645C69.4819 29.8645 72.697 26.3248 73.1737 22.5012L68.7313 22.4809C68.3155 24.7021 66.571 25.98 64.2282 25.98C61.0739 25.98 58.9339 23.6371 58.9339 19.1948C58.9339 14.8742 61.0435 12.4096 64.2586 12.4096C66.6623 12.4096 68.3967 13.7991 68.7313 16.0811H73.1737Z" fill="#081946"/>
<path d="M75.0993 29.5805H79.4199V20.7669C79.4199 18.85 80.8195 17.5315 82.7263 17.5315C83.3247 17.5315 84.1462 17.6329 84.5519 17.7648V13.931C84.1665 13.8397 83.6289 13.7788 83.1928 13.7788C81.4483 13.7788 80.0183 14.7931 79.4503 16.7201H79.288V14.002H75.0993V29.5805Z" fill="#081946"/>
<path d="M88.7849 35.4225C92 35.4225 93.7039 33.7794 94.5863 31.2641L100.641 14.0223L96.067 14.002L92.8113 25.4425H92.6491L89.4238 14.002H84.8801L90.4685 30.0268L90.2149 30.686C89.647 32.1465 88.5617 32.2175 87.0404 31.751L86.0667 34.9762C86.6854 35.2399 87.6895 35.4225 88.7849 35.4225Z" fill="#081946"/>
<path d="M101.71 35.4225H106.03V27.0855H106.162C106.761 28.3837 108.069 29.8341 110.584 29.8341C114.134 29.8341 116.903 27.0247 116.903 21.8115C116.903 16.4564 114.012 13.7991 110.594 13.7991C107.988 13.7991 106.74 15.3509 106.162 16.6187H105.97V14.002H101.71V35.4225ZM105.939 21.7912C105.939 19.0123 107.116 17.2374 109.215 17.2374C111.355 17.2374 112.491 19.0934 112.491 21.7912C112.491 24.5094 111.335 26.3958 109.215 26.3958C107.136 26.3958 105.939 24.5702 105.939 21.7912Z" fill="#081946"/>
<path d="M126.927 14.002H123.996V10.2696H119.675V14.002H117.546V17.2475H119.675V25.3613C119.655 28.4142 121.734 29.9254 124.868 29.7935C125.984 29.7529 126.775 29.5298 127.211 29.3878L126.532 26.1727C126.319 26.2133 125.862 26.3147 125.456 26.3147C124.594 26.3147 123.996 25.9902 123.996 24.7934V17.2475H126.927V14.002Z" fill="#081946"/>
<path d="M135.471 29.8848C140.197 29.8848 143.138 26.6494 143.138 21.8521C143.138 17.0244 140.197 13.7991 135.471 13.7991C130.744 13.7991 127.803 17.0244 127.803 21.8521C127.803 26.6494 130.744 29.8848 135.471 29.8848ZM135.491 26.5378C133.31 26.5378 132.195 24.5398 132.195 21.8217C132.195 19.1035 133.31 17.0954 135.491 17.0954C137.631 17.0954 138.747 19.1035 138.747 21.8217C138.747 24.5398 137.631 26.5378 135.491 26.5378Z" fill="#081946"/>
<path d="M163.974 19.1948C163.974 12.3995 159.755 8.52515 154.248 8.52515C148.71 8.52515 144.521 12.3995 144.521 19.1948C144.521 25.9597 148.71 29.8645 154.248 29.8645C155.546 29.8645 156.773 29.6515 157.889 29.2255L159.562 31.2844H163.66L160.688 27.5521C162.716 25.7366 163.974 22.8968 163.974 19.1948ZM152.726 22.3592L155.384 25.8684C155.029 25.9394 154.643 25.98 154.248 25.98C151.053 25.98 148.974 23.5966 148.974 19.1948C148.974 14.7931 151.053 12.4096 154.248 12.4096C157.432 12.4096 159.522 14.7931 159.522 19.1948C159.522 21.4566 158.964 23.1909 158 24.337L156.459 22.3592H152.726Z" fill="#081946"/>
<path d="M173.042 29.8848C177.191 29.8848 179.797 27.4506 180 23.8704H175.923C175.669 25.5337 174.574 26.4668 173.093 26.4668C171.075 26.4668 169.766 24.7731 169.766 21.7912C169.766 18.85 171.085 17.1664 173.093 17.1664C174.675 17.1664 175.689 18.211 175.923 19.7628H180C179.817 16.1623 177.089 13.7991 173.022 13.7991C168.296 13.7991 165.375 17.0751 165.375 21.8521C165.375 26.5885 168.245 29.8848 173.042 29.8848Z" fill="#081946"/>
<path fill-rule="evenodd" clip-rule="evenodd" d="M19.3804 38.7609C30.084 38.7609 38.7609 30.084 38.7609 19.3804C38.7609 8.67692 30.084 0 19.3804 0C8.67692 0 0 8.67692 0 19.3804C0 30.084 8.67692 38.7609 19.3804 38.7609ZM30.0587 20.691C29.5563 18.5535 27.5469 17.0447 25.0351 17.0447C22.1465 17.0447 19.8859 19.1822 19.8859 21.8225C19.8859 23.0799 20.3883 24.0857 21.1418 24.9659C15.6159 24.8401 11.2203 20.4395 11.2203 15.033C11.2203 9.50079 15.8671 5.10012 21.5186 5.10012C25.0351 5.10012 28.1748 6.60894 31.189 10.0037C34.8748 14.5989 35.1371 20.1328 34.2619 23.3175C33.3867 26.5022 30.058 30.9441 27.3494 31.6207C27.6278 30.9712 27.9403 30.3151 28.2561 29.652C29.6151 26.7987 31.0348 23.818 30.0587 20.691Z" fill="#2424BF"/>
</svg>
